<?xml version="1.0" encoding="UTF-8" standalone="no"?>
<!-- Generator: Adobe Illustrator 22.1.0, SVG Export Plug-In . SVG Version: 6.00 Build 0)  -->

<svg
   version="1.1"
   id="Layer_1"
   x="0px"
   y="0px"
   width="90px"
   height="90px"
   viewBox="0 0 90 90"
   xml:space="preserve"
   sodipodi:docname="phone_icon.svg"
   inkscape:version="1.1 (1:1.1+202105261517+ce6663b3b7)"
   xmlns:inkscape="http://www.inkscape.org/namespaces/inkscape"
   xmlns:sodipodi="http://sodipodi.sourceforge.net/DTD/sodipodi-0.dtd"
   xmlns="http://www.w3.org/2000/svg"
   xmlns:svg="http://www.w3.org/2000/svg"><defs
   id="defs19" /><sodipodi:namedview
   id="namedview17"
   pagecolor="#ffffff"
   bordercolor="#666666"
   borderopacity="1.0"
   inkscape:pageshadow="2"
   inkscape:pageopacity="0.0"
   inkscape:pagecheckerboard="0"
   showgrid="false"
   inkscape:zoom="9.3777778"
   inkscape:cx="44.946682"
   inkscape:cy="44.946682"
   inkscape:window-width="2488"
   inkscape:window-height="1016"
   inkscape:window-x="72"
   inkscape:window-y="27"
   inkscape:window-maximized="1"
   inkscape:current-layer="Layer_1" />
<path
   d="M38.789,51.211l10.876,10.876c0.974,0.974,2.471,1.194,3.684,0.543l13.034-6.997c0.964-0.518,2.129-0.493,3.07,0.066  l19.017,11.285c1.357,0.805,1.903,2.489,1.268,3.933c-1.625,3.698-4.583,10.476-5.758,13.473c-0.247,0.631-0.615,1.209-1.127,1.652  c-12.674,10.986-37.89-2.4-57.191-21.701C6.358,45.039-7.028,19.823,3.958,7.149c0.444-0.512,1.022-0.88,1.652-1.127  c2.996-1.175,9.775-4.133,13.473-5.758c1.444-0.635,3.128-0.089,3.933,1.268l11.285,19.017c0.558,0.941,0.583,2.106,0.066,3.07  L27.37,36.651c-0.651,1.213-0.431,2.71,0.543,3.684C27.913,40.335,38.789,51.211,38.789,51.211z"
   id="path2"
   style="fill:#ffffff" />
<g
   id="g4">
</g>
<g
   id="g6">
</g>
<g
   id="g8">
</g>
<g
   id="g10">
</g>
<g
   id="g12">
</g>
<g
   id="g14">
</g>
</svg>
