<svg width="388" height="389" viewBox="0 0 388 389" fill="none" xmlns="http://www.w3.org/2000/svg">
<g filter="url(#filter0_d)">
<g filter="url(#filter1_d)">
<path fill-rule="evenodd" clip-rule="evenodd" d="M267.158 19.2502C287.773 32.3251 304.75 50.3927 316.513 71.7763C328.276 93.1599 334.444 117.167 334.444 141.569C334.444 179.991 319.173 216.84 291.988 244.009C264.804 271.178 227.934 286.441 189.49 286.441C151.046 286.441 114.176 271.178 86.9919 244.009C59.8077 216.84 44.5357 179.991 44.5357 141.569C44.5558 117.166 50.7433 93.1631 62.5242 71.7884C74.3051 50.4137 91.2976 32.3595 111.925 19.3014C79.7258 34.1169 52.4484 57.8427 33.3216 87.6702C14.1947 117.498 4.01937 152.178 4 187.605C4.00004 236.775 23.5438 283.931 58.3318 318.699C93.1197 353.467 140.302 373 189.5 373C238.698 373 285.88 353.467 320.668 318.699C355.456 283.931 375 236.775 375 187.605C374.998 152.178 364.839 117.493 345.727 87.6568C326.615 57.8203 299.349 34.0814 267.158 19.2502V19.2502Z" fill="url(#paint0_radial)" shape-rendering="crispEdges"/>
</g>
<g filter="url(#filter2_d)">
<path d="M189.063 4C163.493 4.01088 138.433 11.1532 116.702 24.6233C94.9721 38.0934 77.434 57.3569 66.0614 80.2463C74.9739 69.6951 86.081 61.2128 98.609 55.3905C111.137 49.5681 124.784 46.5457 138.6 46.5337C151.081 46.5335 163.44 48.9902 174.971 53.7636C186.502 58.537 196.979 65.5335 205.805 74.3538C214.63 83.1741 221.631 93.6453 226.407 105.17C231.183 116.694 233.642 129.046 233.642 141.519C233.642 153.993 231.183 166.345 226.407 177.869C221.631 189.394 214.63 199.865 205.805 208.685C196.979 217.505 186.502 224.502 174.971 229.275C163.44 234.049 151.081 236.505 138.6 236.505C124.925 236.492 111.414 233.53 98.9893 227.821C86.5644 222.112 75.5186 213.79 66.6061 203.424C78.08 226.039 95.5946 245.036 117.209 258.312C138.823 271.588 163.694 278.624 189.063 278.64C225.504 278.64 260.451 264.172 286.218 238.42C311.985 212.667 326.461 177.739 326.461 141.32C326.461 104.9 311.985 69.9725 286.218 44.22C260.451 18.4676 225.504 4 189.063 4Z" fill="url(#paint1_radial)" shape-rendering="crispEdges"/>
</g>
<g filter="url(#filter3_d)">
<path d="M136.481 52.9054C112.99 52.9055 90.4621 62.2318 73.852 78.8326C57.2418 95.4333 47.9103 117.949 47.9101 141.426C47.9186 157.85 52.4988 173.948 61.1384 187.919C69.7781 201.89 82.1365 213.183 96.8313 220.536C91.6363 215.371 87.5124 209.233 84.6959 202.472C81.8795 195.711 80.4259 188.462 80.4186 181.138C80.4184 173.831 81.8585 166.594 84.6565 159.843C87.4546 153.091 91.5558 146.956 96.7261 141.789C101.896 136.621 108.034 132.522 114.79 129.725C121.545 126.929 128.786 125.489 136.098 125.489C143.41 125.489 150.65 126.929 157.405 129.725C164.161 132.522 170.299 136.621 175.469 141.789C180.64 146.956 184.741 153.091 187.539 159.843C190.337 166.594 191.777 173.831 191.777 181.138C191.772 188.652 190.245 196.086 187.288 202.993C184.33 209.901 180.004 216.138 174.57 221.33C189.678 214.137 202.438 202.815 211.372 188.674C220.307 174.532 225.05 158.15 225.053 141.426C225.053 129.801 222.762 118.29 218.31 107.55C213.859 96.8103 207.335 87.0519 199.11 78.832C190.886 70.6121 181.122 64.0918 170.376 59.6433C159.629 55.1948 148.112 52.9052 136.481 52.9054V52.9054Z" fill="url(#paint2_radial)" shape-rendering="crispEdges"/>
</g>
<g filter="url(#filter4_d)">
<path d="M136.537 130.437C129.981 130.437 123.49 131.727 117.433 134.235C111.377 136.742 105.874 140.417 101.238 145.05C96.6026 149.683 92.9255 155.183 90.4168 161.236C87.9081 167.289 86.6169 173.777 86.6169 180.328C86.6169 186.88 87.9081 193.368 90.4168 199.421C92.9255 205.474 96.6026 210.974 101.238 215.607C105.874 220.24 111.377 223.915 117.433 226.422C123.49 228.929 129.981 230.22 136.537 230.22C145.555 230.213 154.403 227.765 162.141 223.135C169.879 218.506 176.217 211.868 180.483 203.926C175.149 208.346 168.44 210.767 161.511 210.773C153.619 210.773 146.049 207.639 140.468 202.061C134.887 196.483 131.751 188.918 131.751 181.03C131.751 173.141 134.887 165.576 140.468 159.998C146.049 154.42 153.619 151.286 161.511 151.286C169.034 151.286 176.278 154.133 181.785 159.255C177.77 150.644 171.38 143.358 163.364 138.253C155.349 133.149 146.041 130.437 136.537 130.437V130.437Z" fill="url(#paint3_radial)" shape-rendering="crispEdges"/>
</g>
<g filter="url(#filter5_d)">
<path d="M162.202 205.735C175.683 205.735 186.611 194.813 186.611 181.34C186.611 167.867 175.683 156.946 162.202 156.946C148.722 156.946 137.794 167.867 137.794 181.34C137.794 194.813 148.722 205.735 162.202 205.735Z" fill="url(#paint4_radial)" shape-rendering="crispEdges"/>
</g>
</g>
<defs>
<filter id="filter0_d" x="0" y="0" width="379" height="377" filterUnits="userSpaceOnUse" color-interpolation-filters="sRGB">
<feFlood flood-opacity="0" result="BackgroundImageFix"/>
<feColorMatrix in="SourceAlpha" type="matrix" values="0 0 0 0 0 0 0 0 0 0 0 0 0 0 0 0 0 0 127 0" result="hardAlpha"/>
<feOffset/>
<feGaussianBlur stdDeviation="2"/>
<feComposite in2="hardAlpha" operator="out"/>
<feColorMatrix type="matrix" values="0 0 0 0 0 0 0 0 0 0 0 0 0 0 0 0 0 0 0.25 0"/>
<feBlend mode="normal" in2="BackgroundImageFix" result="effect1_dropShadow"/>
<feBlend mode="normal" in="SourceGraphic" in2="effect1_dropShadow" result="shape"/>
</filter>
<filter id="filter1_d" x="3" y="19.2502" width="385" height="369.75" filterUnits="userSpaceOnUse" color-interpolation-filters="sRGB">
<feFlood flood-opacity="0" result="BackgroundImageFix"/>
<feColorMatrix in="SourceAlpha" type="matrix" values="0 0 0 0 0 0 0 0 0 0 0 0 0 0 0 0 0 0 127 0" result="hardAlpha"/>
<feOffset dx="6" dy="9"/>
<feGaussianBlur stdDeviation="3.5"/>
<feComposite in2="hardAlpha" operator="out"/>
<feColorMatrix type="matrix" values="0 0 0 0 0 0 0 0 0 0 0 0 0 0 0 0 0 0 0.25 0"/>
<feBlend mode="normal" in2="BackgroundImageFix" result="effect1_dropShadow"/>
<feBlend mode="normal" in="SourceGraphic" in2="effect1_dropShadow" result="shape"/>
</filter>
<filter id="filter2_d" x="64.0614" y="4" width="272.4" height="286.64" filterUnits="userSpaceOnUse" color-interpolation-filters="sRGB">
<feFlood flood-opacity="0" result="BackgroundImageFix"/>
<feColorMatrix in="SourceAlpha" type="matrix" values="0 0 0 0 0 0 0 0 0 0 0 0 0 0 0 0 0 0 127 0" result="hardAlpha"/>
<feOffset dx="4" dy="6"/>
<feGaussianBlur stdDeviation="3"/>
<feComposite in2="hardAlpha" operator="out"/>
<feColorMatrix type="matrix" values="0 0 0 0 0 0 0 0 0 0 0 0 0 0 0 0 0 0 0.25 0"/>
<feBlend mode="normal" in2="BackgroundImageFix" result="effect1_dropShadow"/>
<feBlend mode="normal" in="SourceGraphic" in2="effect1_dropShadow" result="shape"/>
</filter>
<filter id="filter3_d" x="43.9101" y="52.9054" width="185.143" height="176.424" filterUnits="userSpaceOnUse" color-interpolation-filters="sRGB">
<feFlood flood-opacity="0" result="BackgroundImageFix"/>
<feColorMatrix in="SourceAlpha" type="matrix" values="0 0 0 0 0 0 0 0 0 0 0 0 0 0 0 0 0 0 127 0" result="hardAlpha"/>
<feOffset dy="4"/>
<feGaussianBlur stdDeviation="2"/>
<feComposite in2="hardAlpha" operator="out"/>
<feColorMatrix type="matrix" values="0 0 0 0 0 0 0 0 0 0 0 0 0 0 0 0 0 0 0.25 0"/>
<feBlend mode="normal" in2="BackgroundImageFix" result="effect1_dropShadow"/>
<feBlend mode="normal" in="SourceGraphic" in2="effect1_dropShadow" result="shape"/>
</filter>
<filter id="filter4_d" x="82.6169" y="130.437" width="103.168" height="107.783" filterUnits="userSpaceOnUse" color-interpolation-filters="sRGB">
<feFlood flood-opacity="0" result="BackgroundImageFix"/>
<feColorMatrix in="SourceAlpha" type="matrix" values="0 0 0 0 0 0 0 0 0 0 0 0 0 0 0 0 0 0 127 0" result="hardAlpha"/>
<feOffset dy="4"/>
<feGaussianBlur stdDeviation="2"/>
<feComposite in2="hardAlpha" operator="out"/>
<feColorMatrix type="matrix" values="0 0 0 0 0 0 0 0 0 0 0 0 0 0 0 0 0 0 0.25 0"/>
<feBlend mode="normal" in2="BackgroundImageFix" result="effect1_dropShadow"/>
<feBlend mode="normal" in="SourceGraphic" in2="effect1_dropShadow" result="shape"/>
</filter>
<filter id="filter5_d" x="132.794" y="155.946" width="58.8171" height="58.7895" filterUnits="userSpaceOnUse" color-interpolation-filters="sRGB">
<feFlood flood-opacity="0" result="BackgroundImageFix"/>
<feColorMatrix in="SourceAlpha" type="matrix" values="0 0 0 0 0 0 0 0 0 0 0 0 0 0 0 0 0 0 127 0" result="hardAlpha"/>
<feOffset dy="4"/>
<feGaussianBlur stdDeviation="2.5"/>
<feComposite in2="hardAlpha" operator="out"/>
<feColorMatrix type="matrix" values="0 0 0 0 0 0 0 0 0 0 0 0 0 0 0 0 0 0 0.25 0"/>
<feBlend mode="normal" in2="BackgroundImageFix" result="effect1_dropShadow"/>
<feBlend mode="normal" in="SourceGraphic" in2="effect1_dropShadow" result="shape"/>
</filter>
<radialGradient id="paint0_radial" cx="0" cy="0" r="1" gradientUnits="userSpaceOnUse" gradientTransform="translate(189.5 196.125) rotate(90) scale(176.875 185.5)">
<stop stop-color="#21A7CD" stop-opacity="0"/>
<stop offset="1" stop-color="#1A363E"/>
</radialGradient>
<radialGradient id="paint1_radial" cx="0" cy="0" r="1" gradientUnits="userSpaceOnUse" gradientTransform="translate(196.261 141.32) rotate(90) scale(137.32 130.2)">
<stop stop-color="#1F778D" stop-opacity="0.12"/>
<stop offset="1" stop-color="#084959"/>
</radialGradient>
<radialGradient id="paint2_radial" cx="0" cy="0" r="1" gradientUnits="userSpaceOnUse" gradientTransform="translate(136.481 137.117) rotate(90) scale(84.2121 88.5713)">
<stop stop-color="#1685A3" stop-opacity="0.13"/>
<stop offset="1" stop-color="#0A6A83"/>
</radialGradient>
<radialGradient id="paint3_radial" cx="0" cy="0" r="1" gradientUnits="userSpaceOnUse" gradientTransform="translate(134.201 180.328) rotate(90) scale(49.8916 47.5841)">
<stop stop-color="#20798F" stop-opacity="0.05"/>
<stop offset="1" stop-color="#1B90AD"/>
</radialGradient>
<radialGradient id="paint4_radial" cx="0" cy="0" r="1" gradientUnits="userSpaceOnUse" gradientTransform="translate(162.202 181.34) rotate(90) scale(24.3948 24.4086)">
<stop stop-color="white" stop-opacity="0.74"/>
<stop offset="1" stop-color="#FF0000"/>
</radialGradient>
</defs>
</svg>
